<?xml version="1.0" encoding="UTF-8" standalone="no"?>
<!-- Created with Inkscape (http://www.inkscape.org/) -->

<svg
   xmlns:dc="http://purl.org/dc/elements/1.1/"
   xmlns:cc="http://creativecommons.org/ns#"
   xmlns:rdf="http://www.w3.org/1999/02/22-rdf-syntax-ns#"
   xmlns:svg="http://www.w3.org/2000/svg"
   xmlns="http://www.w3.org/2000/svg"
   xmlns:sodipodi="http://sodipodi.sourceforge.net/DTD/sodipodi-0.dtd"
   xmlns:inkscape="http://www.inkscape.org/namespaces/inkscape"
   width="640"
   height="480"
   id="svg2"
   version="1.1"
   inkscape:version="0.48.3.1 r9886"
   sodipodi:docname="widgets.svg"
   inkscape:export-filename="/usr/local/share/FlightGear/data/Aircraft/F-20/Nasal/GUI/face.png"
   inkscape:export-xdpi="90"
   inkscape:export-ydpi="90">
  <g
     inkscape:label="Layer 1"
     inkscape:groupmode="layer"
     id="layer1"
     transform="translate(0,-572.36218)">
    <g
       id="g3009"
       style="stroke:#000000;fill:#999999">
      <path
         transform="matrix(0.85425686,0,0,0.85425686,45.5571,606.57934)"
         d="m 303.92858,223.75 a 4.8214288,4.8214288 0 1 1 -9.64286,0 4.8214288,4.8214288 0 1 1 9.64286,0 z"
         sodipodi:ry="4.8214288"
         sodipodi:rx="4.8214288"
         sodipodi:cy="223.75"
         sodipodi:cx="299.10715"
         id="SmokeR"
         style="color:#000000;fill:#999999;stroke:#000000;stroke-width:1.40472972;marker:none;visibility:visible;display:inline;overflow:visible;enable-background:accumulate"
         sodipodi:type="arc" />
    </g>
    <g
       id="g3007"
       style="stroke:#000000;fill:#999999">
      <path
         transform="matrix(0.85425686,0,0,0.85425686,328.0571,606.57934)"
         d="m 303.92858,223.75 a 4.8214288,4.8214288 0 1 1 -9.64286,0 4.8214288,4.8214288 0 1 1 9.64286,0 z"
         sodipodi:ry="4.8214288"
         sodipodi:rx="4.8214288"
         sodipodi:cy="223.75"
         sodipodi:cx="299.10715"
         id="SmokeL"
         style="color:#000000;fill:#999999;stroke:#000000;stroke-width:1.40472972;marker:none;visibility:visible;display:inline;overflow:visible;enable-background:accumulate"
         sodipodi:type="arc" />
    </g>
    <g
       id="gege"
       style="stroke:#000000;fill:#999999">
      <path
         transform="matrix(1.7594319,0,0,1.7594319,-168.04437,374.97843)"
         d="m 303.92858,223.75 c 0,2.6628 -2.15863,4.82143 -4.82143,4.82143 -2.6628,0 -4.82143,-2.15863 -4.82143,-4.82143 0,-2.6628 2.15863,-4.82143 4.82143,-4.82143 2.6628,0 4.82143,2.15863 4.82143,4.82143 z"
         sodipodi:ry="4.8214288"
         sodipodi:rx="4.8214288"
         sodipodi:cy="223.75"
         sodipodi:cx="299.10715"
         id="DropR"
         style="color:#000000;fill:#999999;stroke:#000000;stroke-width:1.40472971999999996;marker:none;visibility:visible;display:inline;overflow:visible;enable-background:accumulate"
         sodipodi:type="arc" />
    </g>
    <g
       id="g3003"
       style="stroke:#000000;fill:#999999">
      <path
         transform="matrix(1.7594319,0,0,1.7594319,-85.901516,374.97843)"
         d="m 303.92858,223.75 a 4.8214288,4.8214288 0 1 1 -9.64286,0 4.8214288,4.8214288 0 1 1 9.64286,0 z"
         sodipodi:ry="4.8214288"
         sodipodi:rx="4.8214288"
         sodipodi:cy="223.75"
         sodipodi:cx="299.10715"
         id="CenterTank"
         style="color:#000000;fill:#999999;stroke:#000000;stroke-width:1.40472972;marker:none;visibility:visible;display:inline;overflow:visible;enable-background:accumulate"
         sodipodi:type="arc" />
    </g>
    <g
       id="g3011"
       style="stroke:#000000;fill:#999999">
      <path
         transform="matrix(1.7594319,0,0,1.7594319,-1.615798,374.97843)"
         d="m 303.92858,223.75 a 4.8214288,4.8214288 0 1 1 -9.64286,0 4.8214288,4.8214288 0 1 1 9.64286,0 z"
         sodipodi:ry="4.8214288"
         sodipodi:rx="4.8214288"
         sodipodi:cy="223.75"
         sodipodi:cx="299.10715"
         id="DropL"
         style="color:#000000;fill:#999999;stroke:#000000;stroke-width:1.40472972;marker:none;visibility:visible;display:inline;overflow:visible;enable-background:accumulate"
         sodipodi:type="arc" />
    </g>
  </g>
</svg>
